<svg width="24" height="24" viewBox="0 0 24 24" fill="none" xmlns="http://www.w3.org/2000/svg">
<rect width="24" height="24" rx="4" fill="#2F93E1"/>
<path d="M16.7481 6.51888H13.7201C13.599 6.15913 13.3681 5.84645 13.0599 5.62495C12.7517 5.40344 12.3817 5.28429 12.0021 5.28429C11.6225 5.28429 11.2525 5.40344 10.9443 5.62495C10.6361 5.84645 10.4052 6.15913 10.2841 6.51888H7.37389C7.27089 6.50399 7.16591 6.5111 7.06587 6.53976C6.96583 6.56841 6.87301 6.61796 6.79352 6.68513C6.71403 6.75229 6.64969 6.83555 6.60475 6.92941C6.5598 7.02327 6.53527 7.12559 6.53278 7.22962V18.0043C6.53333 18.0981 6.55236 18.191 6.5888 18.2775C6.62524 18.3641 6.67837 18.4426 6.74515 18.5086C6.81193 18.5746 6.89105 18.6268 6.97801 18.6622C7.06496 18.6976 7.15804 18.7155 7.25193 18.715H16.7481C16.842 18.7155 16.935 18.6976 17.022 18.6622C17.1089 18.6268 17.1881 18.5746 17.2548 18.5086C17.3216 18.4426 17.3747 18.3641 17.4112 18.2775C17.4476 18.191 17.4667 18.0981 17.4672 18.0043V7.22962C17.4667 7.13573 17.4476 7.04287 17.4112 6.95634C17.3747 6.86981 17.3216 6.79131 17.2548 6.72531C17.1881 6.65931 17.1089 6.60711 17.022 6.57169C16.935 6.53628 16.842 6.51833 16.7481 6.51888ZM9.17807 7.78055C9.17807 7.66901 9.22238 7.56204 9.30125 7.48317C9.38012 7.4043 9.48709 7.36 9.59862 7.36H11.0453V7.09505C11.0453 6.83683 11.1479 6.5892 11.3305 6.40662C11.5131 6.22403 11.7607 6.12146 12.0189 6.12146C12.2771 6.12146 12.5248 6.22403 12.7074 6.40662C12.8899 6.5892 12.9925 6.83683 12.9925 7.09505V7.38102H14.4392C14.5508 7.38102 14.6577 7.42533 14.7366 7.5042C14.8155 7.58307 14.8598 7.69004 14.8598 7.80158V8.55858H9.16125L9.17807 7.78055ZM15.2845 11.6623L11.4491 15.4977L9.24536 13.294C9.13382 13.1825 9.07116 13.0312 9.07116 12.8735C9.07116 12.7157 9.13382 12.5645 9.24536 12.4529C9.3569 12.3414 9.50817 12.2787 9.66591 12.2787C9.82365 12.2787 9.97493 12.3414 10.0865 12.4529L11.4575 13.8239L14.4602 10.8212C14.5718 10.7096 14.7231 10.647 14.8808 10.647C15.0385 10.647 15.1898 10.7096 15.3014 10.8212C15.4129 10.9327 15.4756 11.084 15.4756 11.2417C15.4756 11.3995 15.4129 11.5507 15.3014 11.6623H15.2845Z" fill="white"/>
</svg>
