<svg width="24" height="24" viewBox="0 0 24 24" fill="none" xmlns="http://www.w3.org/2000/svg">
<rect width="24" height="24" rx="4" fill="#FF5A50"/>
<path fill-rule="evenodd" clip-rule="evenodd" d="M18.6233 4.56858C18.576 4.45068 18.485 4.35557 18.3693 4.30303C18.2536 4.2505 18.1221 4.24458 18.0022 4.28652C17.8823 4.32846 17.7831 4.41502 17.7254 4.5282C17.6677 4.64138 17.6558 4.77245 17.6922 4.89416C18.7913 6.72119 18.5776 7.88399 17.4303 8.75548L16.9668 8.09125C16.811 7.86849 16.4625 7.68325 16.1916 7.67999L13.5902 7.69141C13.2724 7.70101 12.9631 7.79631 12.6951 7.96722L5.02955 13.3422C4.85125 13.4677 4.72993 13.6587 4.69216 13.8734C4.65438 14.0881 4.70323 14.3091 4.828 14.4879L8.3115 19.472C8.57263 19.8433 8.9896 19.7984 9.3617 19.5389L17.0272 14.1631C17.2475 14.0073 17.5021 13.6711 17.5919 13.414L18.4062 10.8477C18.496 10.5915 18.4413 10.2006 18.2855 9.97785L18.0031 9.57311C19.5437 8.39236 19.7093 6.38969 18.6233 4.56858ZM16.6886 11.3887C16.5473 11.4876 16.388 11.5576 16.2197 11.5949C16.0514 11.6321 15.8774 11.6359 15.7077 11.6059C15.5379 11.5759 15.3758 11.5127 15.2305 11.42C15.0851 11.3273 14.9595 11.2069 14.8607 11.0656C14.6607 10.7797 14.5824 10.4261 14.6428 10.0825C14.7032 9.73893 14.8975 9.43334 15.183 9.23284C15.4069 9.07602 15.6741 8.99305 15.9474 8.99554C16.2207 8.99803 16.4864 9.08584 16.7073 9.24671C16.4854 9.38054 16.3328 9.45887 16.3042 9.47111C16.2031 9.51934 16.1213 9.6005 16.0723 9.70128C16.0233 9.80207 16.01 9.91651 16.0346 10.0258C16.0591 10.1352 16.1201 10.2329 16.2075 10.3031C16.2949 10.3732 16.4035 10.4116 16.5156 10.412C16.5857 10.412 16.6576 10.3956 16.7253 10.3638C16.8836 10.2887 17.0533 10.1998 17.2304 10.0945C17.2711 10.3394 17.2419 10.5908 17.146 10.8197C17.0502 11.0487 16.8916 11.2459 16.6886 11.3887ZM10.9392 11.1402C11.2465 10.9183 11.6755 10.9874 11.8974 11.2947L13.488 13.497C13.7099 13.8042 13.6407 14.2332 13.3335 14.4551C13.0262 14.677 12.5972 14.6079 12.3753 14.3006L10.7847 12.0983C10.5628 11.7911 10.632 11.3621 10.9392 11.1402ZM9.50346 12.9521C9.28154 12.6448 8.85255 12.5756 8.5453 12.7976C8.23804 13.0195 8.16886 13.4485 8.39078 13.7557L9.98138 15.958C10.2033 16.2652 10.6323 16.3344 10.9395 16.1125C11.2468 15.8906 11.316 15.4616 11.0941 15.1543L9.50346 12.9521Z" fill="white"/>
</svg>
