<svg width="24" height="24" viewBox="0 0 24 24" fill="none" xmlns="http://www.w3.org/2000/svg">
<rect width="24" height="24" rx="4" fill="#FF5A50"/>
<path d="M19.6466 10.938V11.3628C19.6466 11.7148 19.3613 12 19.0094 12H18.797L18.1037 16.8531C18.014 17.4809 17.4763 17.9473 16.8421 17.9473H7.15819C6.52399 17.9473 5.98629 17.4809 5.89658 16.8531L5.2033 12H4.9909C4.63898 12 4.3537 11.7148 4.3537 11.3628V10.938C4.3537 10.5861 4.63898 10.3008 4.9909 10.3008H6.77882L9.61384 6.40271C9.88983 6.02326 10.4212 5.93933 10.8007 6.21532C11.1801 6.49131 11.264 7.02266 10.9881 7.40214L8.87989 10.3008H15.1204L13.0122 7.40212C12.7362 7.02266 12.8202 6.49129 13.1997 6.2153C13.5791 5.93931 14.1105 6.02321 14.3865 6.40269L17.2215 10.3008H19.0094C19.3613 10.3008 19.6466 10.5861 19.6466 10.938ZM12.6374 15.6109V12.6373C12.6374 12.2853 12.3521 12 12.0001 12C11.6482 12 11.3629 12.2853 11.3629 12.6373V15.6109C11.3629 15.9628 11.6482 16.2481 12.0001 16.2481C12.3521 16.2481 12.6374 15.9628 12.6374 15.6109ZM15.611 15.6109V12.6373C15.611 12.2853 15.3257 12 14.9738 12C14.6218 12 14.3366 12.2853 14.3366 12.6373V15.6109C14.3366 15.9628 14.6218 16.2481 14.9738 16.2481C15.3257 16.2481 15.611 15.9628 15.611 15.6109ZM9.66373 15.6109V12.6373C9.66373 12.2853 9.37845 12 9.02653 12C8.67461 12 8.38932 12.2853 8.38932 12.6373V15.6109C8.38932 15.9628 8.67461 16.2481 9.02653 16.2481C9.37845 16.2481 9.66373 15.9628 9.66373 15.6109Z" fill="white"/>
</svg>
