<svg width="24" height="24" viewBox="0 0 24 24" fill="none" xmlns="http://www.w3.org/2000/svg">
<rect width="24" height="24" rx="4" fill="#FFA438"/>
<path d="M17.7926 7.94324H15.1591V7.43614C15.1586 7.03281 14.992 6.64613 14.6958 6.36093C14.3997 6.07573 13.9981 5.91531 13.5793 5.91486H10.4197C10.0008 5.91531 9.59927 6.07573 9.3031 6.36093C9.00694 6.64613 8.84034 7.03281 8.83987 7.43614V7.94324H6.2074C5.92817 7.94354 5.66047 8.05049 5.46303 8.24062C5.26558 8.43075 5.15452 8.68854 5.15421 8.95743V17.071C5.15452 17.3398 5.26558 17.5976 5.46303 17.7878C5.66047 17.9779 5.92817 18.0848 6.2074 18.0851H17.7926C18.0718 18.0848 18.3395 17.9779 18.537 17.7878C18.7344 17.5976 18.8455 17.3398 18.8458 17.071V8.95743C18.8455 8.68854 18.7344 8.43075 18.537 8.24062C18.3395 8.05049 18.0718 7.94354 17.7926 7.94324ZM9.89307 10.4787C9.89307 10.6132 9.83759 10.7422 9.73883 10.8373C9.64008 10.9324 9.50613 10.9858 9.36647 10.9858C9.22681 10.9858 9.09287 10.9324 8.99411 10.8373C8.89535 10.7422 8.83987 10.6132 8.83987 10.4787V9.46452C8.83987 9.33003 8.89535 9.20105 8.99411 9.10595C9.09287 9.01085 9.22681 8.95743 9.36647 8.95743C9.50613 8.95743 9.64008 9.01085 9.73883 9.10595C9.83759 9.20105 9.89307 9.33003 9.89307 9.46452V10.4787ZM9.89307 7.43614C9.89324 7.3017 9.94878 7.17282 10.0475 7.07776C10.1462 6.98269 10.2801 6.92921 10.4197 6.92905H13.5793C13.7189 6.92921 13.8527 6.98269 13.9514 7.07776C14.0501 7.17282 14.1057 7.3017 14.1059 7.43614V7.94324H9.89307V7.43614ZM15.1591 10.4787C15.1591 10.6132 15.1036 10.7422 15.0048 10.8373C14.9061 10.9324 14.7721 10.9858 14.6325 10.9858C14.4928 10.9858 14.3589 10.9324 14.2601 10.8373C14.1613 10.7422 14.1059 10.6132 14.1059 10.4787V9.46452C14.1059 9.33003 14.1613 9.20105 14.2601 9.10595C14.3589 9.01085 14.4928 8.95743 14.6325 8.95743C14.7721 8.95743 14.9061 9.01085 15.0048 9.10595C15.1036 9.20105 15.1591 9.33003 15.1591 9.46452V10.4787Z" fill="white"/>
</svg>
