<svg width="36" height="36" viewBox="0 0 36 36" fill="none" xmlns="http://www.w3.org/2000/svg">
<rect width="36" height="36" rx="6" fill="#F3F6F8"/>
<path fill-rule="evenodd" clip-rule="evenodd" d="M11.3333 14.4583C10.758 14.4583 10.2917 14.9247 10.2917 15.5V23.8333C10.2917 24.4086 10.758 24.875 11.3333 24.875H24.6667C25.242 24.875 25.7083 24.4086 25.7083 23.8333V15.5C25.7083 14.9247 25.242 14.4583 24.6667 14.4583H11.3333ZM9.04166 15.5C9.04166 14.2343 10.0677 13.2083 11.3333 13.2083H24.6667C25.9323 13.2083 26.9583 14.2343 26.9583 15.5V23.8333C26.9583 25.099 25.9323 26.125 24.6667 26.125H11.3333C10.0677 26.125 9.04166 25.099 9.04166 23.8333V15.5Z" fill="#D8DEEB"/>
<path fill-rule="evenodd" clip-rule="evenodd" d="M14.7129 10.5462C15.1426 10.1164 15.7255 9.875 16.3333 9.875H19.6667C20.2744 9.875 20.8573 10.1164 21.2871 10.5462C21.7169 10.976 21.9583 11.5589 21.9583 12.1667V14.0722H20.7083V12.1667C20.7083 11.8904 20.5986 11.6254 20.4032 11.4301C20.2079 11.2347 19.9429 11.125 19.6667 11.125H16.3333C16.0571 11.125 15.7921 11.2347 15.5968 11.4301C15.4014 11.6254 15.2917 11.8904 15.2917 12.1667V14.0722H14.0417V12.1667C14.0417 11.5589 14.2831 10.976 14.7129 10.5462Z" fill="#D8DEEB"/>
<path fill-rule="evenodd" clip-rule="evenodd" d="M12.2634 18.0722C12.9538 18.4595 13.8524 18.6602 14.7601 18.6602H21.0861C21.9938 18.6602 22.8924 18.4595 23.5828 18.0722C24.2572 17.6939 24.7981 17.0887 24.7981 16.3137V14.2852H23.7V16.3137C23.7 16.4797 23.5743 16.7771 23.0624 17.0642C22.5665 17.3424 21.856 17.5155 21.0861 17.5155H14.7601C13.9902 17.5155 13.2797 17.3424 12.7838 17.0642C12.2719 16.7771 12.1462 16.4797 12.1462 16.3137V14.2852H11.0481V16.3137C11.0481 17.0887 11.5889 17.6939 12.2634 18.0722Z" fill="#D8DEEB"/>
<path fill-rule="evenodd" clip-rule="evenodd" d="M16.0729 20.2916C16.0729 19.9464 16.3528 19.6666 16.6979 19.6666H19.3021C19.6473 19.6666 19.9271 19.9464 19.9271 20.2916C19.9271 20.6368 19.6473 20.9166 19.3021 20.9166H16.6979C16.3528 20.9166 16.0729 20.6368 16.0729 20.2916Z" fill="#D8DEEB"/>
</svg>
