<svg width="16" height="16" viewBox="0 0 16 16" fill="none" xmlns="http://www.w3.org/2000/svg">
<path d="M7.43574 4.63301L8.00003 5.27752L8.56431 4.63301C9.03476 4.09568 9.76586 3.75 10.5213 3.75C11.8526 3.75 12.853 4.7525 12.853 5.99728C12.853 6.774 12.5007 7.54096 11.7158 8.47437C10.9229 9.4172 9.77452 10.4321 8.31635 11.7182L8.31527 11.7191L7.99814 11.9999L7.6843 11.7241C7.68407 11.7239 7.68384 11.7237 7.68361 11.7235C6.2256 10.4349 5.07738 9.41878 4.28446 8.47525C3.49934 7.541 3.14709 6.77402 3.14709 5.99728C3.14709 4.7525 4.14746 3.75 5.47871 3.75C6.23419 3.75 6.96529 4.09568 7.43574 4.63301Z" fill="#606483" stroke="#606483" stroke-width="1.5"/>
</svg>
