<svg width="68" height="67" viewBox="0 0 68 67" fill="none" xmlns="http://www.w3.org/2000/svg">
<path d="M65.1924 52.9401L51.4611 39.2092L50.8857 39.7846C49.9324 40.7379 48.3854 40.7379 47.4325 39.7846C46.4792 38.8317 46.4792 37.2848 47.4325 36.3315L48.0079 35.7561L44.5547 32.3029L33.044 43.8136L36.4972 47.2668L37.073 46.691C38.0259 45.7381 39.5729 45.7381 40.5262 46.691C41.4791 47.6443 41.4791 49.1912 40.5262 50.1446L39.9504 50.7199L53.6817 64.4508C54.0983 64.8644 54.5576 65.2315 55.0525 65.5455L66.287 54.3114C65.9713 53.8165 65.6042 53.3559 65.1924 52.9401Z" fill="#C4CDDF"/>
<path d="M66.287 54.3112L55.0525 65.5453C58.8301 67.9721 63.8607 66.8774 66.287 63.0993C68.0066 60.422 68.0066 56.9871 66.287 54.3112Z" fill="#D8DEEB"/>
<path d="M14.6269 9.28161L13.4762 4.67724L5.41864 0.0733032L0.81427 4.67724L5.41864 12.7348L10.023 13.886L36.4971 40.3606L41.1015 35.7562L14.6269 9.28161Z" fill="#D8DEEB"/>
<path d="M67.1869 9.67091L59.5186 17.3392L52.6122 15.0372L50.3103 8.13047L57.9786 0.462177C51.231 -1.25962 44.3659 2.81503 42.6441 9.56262C42.1227 11.608 42.1227 13.7512 42.6441 15.7966L16.5379 41.9028C9.7212 40.1727 2.79312 44.2948 1.06305 51.1115C-0.667444 57.9278 3.45461 64.8563 10.2714 66.5864C17.0881 68.3165 24.0162 64.1944 25.7462 57.3781C26.2677 55.3223 26.2677 53.1673 25.7462 51.1115L51.8524 25.0053C58.6048 26.7228 65.4694 22.6412 67.1869 15.8888C67.7048 13.8482 67.7048 11.7106 67.1869 9.67091ZM16.9294 59.9288H10.023L6.56942 54.1733L10.023 48.4181H16.9294L20.3825 54.1733L16.9294 59.9288Z" fill="#D8DEEB"/>
<path d="M20.717 45.3013L46.0404 19.9779L47.6683 21.6058L22.3449 46.9291L20.717 45.3013Z" fill="#C4CDDF"/>
<path d="M46.0412 46.9296L47.6691 45.3017L59.1793 56.8124L57.5515 58.4403L46.0412 46.9296Z" fill="#B6C2DA"/>
<path d="M67.5762 58.6955C67.5749 57.1402 67.1274 55.6185 66.2871 54.3112L62.9718 57.626V66.0184C65.7852 64.6637 67.574 61.8172 67.5762 58.6955Z" fill="#C4CDDF"/>
</svg>
