<svg width="14" height="16" viewBox="0 0 14 16" fill="none" xmlns="http://www.w3.org/2000/svg">
<path d="M9.47782 12.3392H4.52235C4.25949 12.3392 4.0074 12.4436 3.82154 12.6295C3.63567 12.8153 3.53125 13.0674 3.53125 13.3303V14.3214C3.53125 14.5842 3.63567 14.8363 3.82154 15.0222C4.0074 15.2081 4.25949 15.3125 4.52235 15.3125H9.47782C9.74068 15.3125 9.99277 15.2081 10.1786 15.0222C10.3645 14.8363 10.4689 14.5842 10.4689 14.3214V13.3303C10.4689 13.0674 10.3645 12.8153 10.1786 12.6295C9.99277 12.4436 9.74068 12.3392 9.47782 12.3392Z" fill="#606483"/>
<path d="M13.2969 6.77923L7.35036 0.832658C7.25743 0.739757 7.1314 0.687569 7 0.687569C6.8686 0.687569 6.74258 0.739757 6.64965 0.832658L0.703073 6.77923C0.633791 6.84854 0.586612 6.93683 0.5675 7.03294C0.548388 7.12905 0.558201 7.22867 0.595699 7.31921C0.633197 7.40975 0.696696 7.48713 0.778169 7.54158C0.859642 7.59604 0.955431 7.62511 1.05343 7.62513H3.53117V9.92763C3.53143 10.1904 3.63593 10.4423 3.82174 10.6282C4.00755 10.814 4.25949 10.9185 4.52226 10.9187H9.47774C9.74048 10.9183 9.99234 10.8138 10.1781 10.628C10.3639 10.4422 10.4684 10.1904 10.4688 9.92763V7.62513H12.9466C13.0446 7.62511 13.1404 7.59604 13.2218 7.54158C13.3033 7.48713 13.3668 7.40975 13.4043 7.31921C13.4418 7.22867 13.4516 7.12905 13.4325 7.03294C13.4134 6.93683 13.3662 6.84854 13.2969 6.77923Z" fill="#606483"/>
</svg>
